<?xml version="1.0" standalone="no"?>
<!DOCTYPE svg PUBLIC "-//W3C//DTD SVG 20010904//EN"
 "http://www.w3.org/TR/2001/REC-SVG-20010904/DTD/svg10.dtd">
<svg version="1.0" xmlns="http://www.w3.org/2000/svg"
 width="700.000000pt" height="700.000000pt" viewBox="0 0 700.000000 700.000000"
 preserveAspectRatio="xMidYMid meet">
<metadata>
Created by potrace 1.11, written by Peter Selinger 2001-2013
</metadata>
<g transform="translate(0.000000,700.000000) scale(0.100000,-0.100000)"
fill="#000000" stroke="none">
<path d="M3338 5735 c-2 -1 -39 -5 -83 -8 -114 -8 -309 -36 -405 -58 -25 -6
-52 -12 -60 -14 -413 -88 -929 -330 -1357 -636 -104 -75 -317 -240 -333 -258
-3 -3 -39 -35 -80 -70 -74 -64 -379 -366 -454 -449 -21 -24 -68 -78 -103 -120
-36 -43 -73 -87 -83 -99 -53 -63 -217 -283 -293 -395 l-86 -127 76 -113 c72
-107 258 -361 285 -390 7 -7 30 -34 51 -60 21 -26 43 -53 50 -60 7 -7 41 -47
77 -88 85 -99 373 -388 480 -482 110 -97 330 -271 415 -328 37 -25 72 -49 78
-55 89 -76 521 -315 712 -395 151 -62 434 -158 518 -174 12 -2 51 -11 87 -20
36 -8 81 -18 100 -21 19 -3 46 -8 60 -10 214 -42 688 -53 880 -21 14 3 61 10
105 16 44 7 89 14 100 16 11 3 40 9 65 14 73 15 82 17 150 35 216 54 479 156
707 272 453 229 823 503 1223 903 281 280 475 513 693 832 l86 126 -86 129
c-130 192 -269 373 -448 579 -81 93 -404 417 -485 484 -35 30 -71 62 -80 71
-32 31 -270 215 -335 259 -37 25 -72 50 -78 55 -53 45 -300 192 -477 282 -371
190 -796 323 -1140 358 -30 3 -73 8 -95 11 -39 6 -432 14 -437 9z m362 -339
c114 -9 203 -20 260 -31 14 -3 41 -8 60 -11 64 -11 268 -63 352 -90 292 -93
644 -270 938 -472 96 -66 337 -250 376 -287 12 -11 48 -42 80 -70 90 -78 352
-340 439 -440 44 -49 81 -92 84 -95 32 -29 277 -351 292 -384 10 -22 7 -31
-27 -78 -21 -29 -41 -55 -44 -58 -3 -3 -25 -32 -50 -65 -50 -67 -157 -200
-210 -260 -19 -21 -55 -62 -80 -90 -105 -118 -361 -366 -500 -484 -102 -86
-386 -298 -452 -336 -9 -5 -70 -42 -135 -81 -212 -127 -428 -229 -637 -303
-90 -32 -240 -76 -286 -84 -14 -3 -43 -10 -65 -15 -22 -6 -62 -14 -90 -18 -27
-3 -53 -8 -57 -11 -4 -2 -31 -6 -60 -9 -29 -2 -58 -6 -65 -9 -21 -7 -226 -19
-328 -18 -153 0 -289 11 -430 34 -108 18 -120 20 -160 31 -22 5 -47 11 -55 13
-104 21 -339 97 -480 157 -380 161 -748 397 -1125 722 -148 128 -444 435 -579
601 -31 39 -70 86 -86 105 -64 79 -170 229 -170 240 0 22 227 318 364 474 90
102 348 362 451 453 402 358 858 640 1291 798 92 34 288 93 334 102 14 2 44 8
68 14 23 5 59 12 80 15 20 3 40 8 43 10 4 2 31 6 61 9 30 3 64 7 76 10 12 2
61 7 110 10 48 4 88 8 89 8 4 5 249 -1 323 -7z"/>
<path d="M3359 5113 c-4 -50 -9 -122 -12 -181 -4 -83 -19 -100 -78 -94 -3 1
-30 -5 -60 -13 -30 -8 -60 -15 -67 -15 -7 0 -38 53 -69 118 -31 64 -57 118
-58 120 -3 3 -249 -98 -257 -106 -4 -4 13 -64 36 -133 l44 -126 -57 -33 c-31
-18 -58 -36 -61 -40 -8 -10 -54 -40 -61 -40 -4 0 -20 12 -36 28 -56 52 -155
137 -164 140 -7 3 -128 -114 -183 -176 -21 -24 -21 -23 88 -142 75 -82 74 -69
9 -168 l-59 -89 -124 43 c-69 24 -128 40 -132 36 -8 -8 -109 -254 -106 -257 2
-1 56 -27 121 -58 64 -31 117 -62 117 -69 0 -7 -5 -29 -10 -48 -12 -40 -23
-106 -22 -132 1 -10 -5 -18 -11 -19 -60 -2 -221 -14 -259 -18 -5 -1 -8 -64 -8
-141 0 -77 3 -140 8 -141 27 -3 99 -8 169 -13 92 -5 102 -9 101 -34 0 -9 7
-51 16 -92 9 -41 16 -79 16 -83 0 -4 -48 -31 -107 -60 -60 -29 -113 -56 -120
-60 -8 -5 2 -42 38 -130 28 -67 54 -125 57 -129 4 -4 63 12 132 36 l124 43 59
-89 c51 -77 57 -91 45 -106 -14 -18 -58 -67 -125 -141 l-40 -44 99 -98 c55
-55 103 -99 106 -99 7 0 39 28 134 115 26 24 52 46 57 50 6 3 51 -20 99 -52
l89 -58 -29 -85 c-15 -47 -31 -92 -35 -100 -30 -69 -29 -70 111 -127 71 -29
130 -52 131 -51 0 2 27 58 59 124 l59 121 43 -13 c24 -7 63 -16 86 -19 64 -9
78 -15 79 -33 1 -9 3 -28 4 -42 1 -14 3 -56 5 -95 4 -124 -9 -114 154 -114
l141 0 1 37 c1 63 13 234 16 237 2 1 26 5 53 8 28 3 71 11 98 17 37 10 50 10
62 0 8 -7 15 -16 15 -21 0 -6 71 -159 95 -206 3 -5 247 96 257 106 4 3 -12 63
-36 132 l-44 126 41 23 c23 13 62 39 86 57 24 18 47 33 51 33 5 0 52 -40 106
-88 l97 -88 81 81 c45 45 89 91 100 103 21 24 33 5 -137 199 -19 21 -19 22 40
111 l59 89 124 -43 c69 -24 128 -40 132 -36 8 9 110 254 106 256 -2 2 -56 28
-120 59 -65 31 -118 63 -118 69 0 7 5 29 10 48 6 19 13 58 16 85 3 28 9 54 13
58 7 7 39 10 211 21 l55 3 0 144 0 143 -50 2 c-95 4 -208 14 -214 20 -3 3 -11
36 -18 72 -6 37 -15 84 -19 105 -4 23 -3 37 4 37 7 0 215 95 230 105 3 3 -98
249 -107 258 -4 4 -64 -13 -133 -37 l-125 -45 -22 40 c-13 22 -38 60 -57 84
-19 25 -34 49 -34 54 0 4 10 19 23 33 66 72 147 166 147 171 0 3 -44 50 -98
104 l-99 99 -59 -54 c-32 -29 -78 -69 -101 -88 l-42 -36 -89 59 -89 59 43 124
c24 68 40 127 36 131 -4 4 -62 30 -129 58 -88 36 -125 46 -130 38 -4 -7 -31
-60 -60 -119 -29 -60 -58 -108 -65 -108 -7 0 -29 5 -48 10 -19 6 -57 13 -85
16 -27 3 -54 9 -58 14 -7 6 -14 68 -22 205 -2 28 -3 53 -4 58 -1 4 -64 7 -141
7 -77 0 -140 -3 -141 -7z m260 -718 c196 -26 366 -109 510 -248 198 -191 299
-468 269 -742 -31 -295 -206 -556 -469 -699 -138 -75 -274 -109 -439 -108
-385 4 -722 249 -848 619 -65 187 -58 429 17 613 97 238 294 431 529 518 129
47 294 65 431 47z"/>
<path d="M3425 4043 c-266 -47 -458 -258 -470 -516 -14 -301 215 -556 512
-572 311 -16 568 219 578 529 8 261 -171 490 -430 551 -34 8 -159 13 -190 8z"/>
</g>
</svg>
